<svg width="75" height="60" viewBox="0 0 75 60" xmlns="http://www.w3.org/2000/svg"><title>ic-visa</title><g fill="#1A1F71" fill-rule="evenodd"><path d="M57.782 29.717c.377-1.058.807-2.354 1.284-3.312l.609 3.383c.12.561.237 1.116.358 1.672.11.513.271 1.133.34 1.643l-3.799-.01 1.208-3.376zm-3.606 9.84c.325-.185.837-2.668 1.122-2.736l5.706.007c.184.036.154.164.196.39.144.773.365 1.594.482 2.34l4.261-.01-3.717-18.077c-1.247-.027-2.615-.048-3.856.016-1.14.057-1.73.482-2.192 1.638a374.063 374.063 0 0 1-2.24 5.46c-.764 1.83-1.5 3.658-2.258 5.492l-2.234 5.48h4.73zm-4.345-13.778l.561-3.944c-.379-.238-1.623-.468-2.154-.559-3.701-.62-8.708.524-9.604 4.823-.381 1.83.354 3.42 1.833 4.616 1.706 1.378 4.512 2.058 4.514 3.521.003.764-.668 1.276-1.22 1.512-.562.241-1.668.281-2.333.24-1.7-.103-2.782-.59-4.123-1.187l-.662 4.063c.31.072.681.25 1.026.353 3.545 1.064 8.796.919 11.142-2.401.712-1.01 1.204-2.69.848-4.24-.162-.705-.52-1.436-.897-1.813-.251-.255-.375-.443-.65-.679-1.395-1.203-2.962-1.56-4.083-2.544-.459-.403-1.058-.837-.424-1.773.718-1.064 3.08-.936 4.241-.667 1.063.247 1.594.58 1.985.679m-29.49 5.601c-.503-1.781-1.613-3.368-2.554-4.437-.144-.164-.253-.334-.41-.478-.12-.109-.12-.086-.225-.216-.492-.596-2.406-2.074-3.127-2.434.095.616.816 3.118 1.03 3.97l2.039 7.851c.325 1.308.717 2.612 1.034 3.895l4.792.032c.065-.282.76-1.855.931-2.283.306-.76.607-1.492.918-2.244 1.242-3.019 2.406-6.065 3.633-9.103.404-1 1.53-3.664 1.8-4.478l-4.877-.004-4.47 12.293c-.204-.403-.274-2.004-.514-2.364m16.298-9.935l-4.588.014c-.51 2.993-.954 6.013-1.432 9.006l-1.07 6.807c-.107.723-.27 1.547-.318 2.268l4.556-.001 2.852-18.094"/><path d="M14.025 23.815c.72.36 2.635 1.838 3.127 2.434.106.13.106.107.225.216.157.144.266.314.41.478.94 1.069 2.051 2.656 2.554 4.437.06-.237-.715-3.901-.83-4.508-.165-.879-.652-3.887-.97-4.465-.34-.619-.834-.908-1.763-.938-1.726-.056-3.576-.005-5.334-.026-.67-.008-1.936-.116-2.437.242.01.008.025.006.029.02.004.015.022.016.029.019.228.12-.08-.03.064.033l.514.174c1.3.438 3.368 1.157 4.382 1.884"/></g></svg>