<svg width="185" height="60" viewBox="0 0 185 60" xmlns="http://www.w3.org/2000/svg" xmlns:xlink="http://www.w3.org/1999/xlink"><title>ic-ppb</title><defs><path id="a" d="M.409.247h10.007v22.936H.41V.247z"/><path id="c" d="M0 .097v19.15h12.418V.097z"/><path id="e" d="M.351 8.16h6.19V.328H.351V8.16z"/></defs><g fill="none" fill-rule="evenodd"><path d="M90.826 25.245a4.932 4.932 0 0 0-4.658-3.263h-.045c-1.398 0-2.66.575-3.558 1.499a4.947 4.947 0 0 0-3.557-1.5h-.045a4.95 4.95 0 0 0-3.218 1.181v-.372a.724.724 0 0 0-.723-.667H71.72a.726.726 0 0 0-.73.722v17.711c0 .4.328.723.73.723h3.302c.368 0 .67-.272.72-.624l-.003-12.713c0-.043.003-.086.006-.128.054-.567.474-1.034 1.139-1.092h.609c.278.024.513.12.696.266.288.227.449.573.448.954l.012 12.651c0 .4.328.722.73.722h3.301a.725.725 0 0 0 .727-.687l-.003-12.702a1.188 1.188 0 0 1 .538-1.02c.169-.108.372-.18.607-.2h.61c.712.061 1.144.595 1.143 1.22l.013 12.634c0 .399.327.722.73.722h3.3c.404 0 .73-.323.73-.722V26.97c0-.926-.106-1.321-.25-1.726" fill="#00B4DF"/><g transform="translate(58.789 18.233)"><mask id="b" fill="#fff"><use xlink:href="#a"/></mask><path d="M9.687 3.937H7.8V.906a.664.664 0 0 0-.792-.645C4.913.828 5.333 3.693 1.512 3.937h-.373a.758.758 0 0 0-.159.018H.977.98a.723.723 0 0 0-.57.703v3.26c0 .4.328.723.73.723h1.993L3.13 22.469c0 .395.324.714.722.714h3.264c.398 0 .721-.32.721-.714L7.838 8.64h1.85a.726.726 0 0 0 .728-.723v-3.26a.726.726 0 0 0-.729-.721" fill="#00B4DF" mask="url(#b)"/></g><path d="M56.597 22.17h-3.3a.726.726 0 0 0-.73.72v6.745a.769.769 0 0 1-.772.752h-1.383a.769.769 0 0 1-.774-.765l-.014-6.732a.726.726 0 0 0-.73-.72h-3.3a.726.726 0 0 0-.73.72v7.391c0 2.808 2.026 4.809 4.87 4.809 0 0 2.133 0 2.199.012a.764.764 0 0 1 .685.756.764.764 0 0 1-.675.753l-.055.01-4.829.017a.725.725 0 0 0-.73.722v3.26c0 .398.328.72.73.72h5.398c2.845 0 4.87-2 4.87-4.808V22.89a.726.726 0 0 0-.73-.72" fill="#222C53"/><g transform="translate(17 22.073)"><mask id="d" fill="#fff"><use xlink:href="#c"/></mask><path d="M7.642 6.073v2.012a.77.77 0 0 1-.773.764l-2.095.003V4.818h2.095a.77.77 0 0 1 .773.764v.49zm.29-5.976H.716A.712.712 0 0 0 0 .803V4l.002.018L0 4.063v14.46c0 .395.298.714.667.724H4.03a.726.726 0 0 0 .731-.722l.013-4.957h3.158c2.644 0 4.486-1.81 4.486-4.432v-4.6c0-2.622-1.842-4.44-4.486-4.44z" fill="#222C53" mask="url(#d)"/></g><path d="M38.34 35.801v.51a.653.653 0 0 1-.043.226.773.773 0 0 1-.735.492h-1.374c-.43 0-.778-.322-.778-.718v-.616l-.001-.022.001-1.637v-.517c.003-.394.35-.713.778-.713h1.374c.43 0 .778.321.778.717V35.8zm-.526-13.613h-4.58c-.405 0-.734.304-.734.677v1.267c0 .009.003.018.003.026 0 .009-.003.017-.003.026v1.738c0 .396.349.717.778.717l4.362.001c.344.053.617.3.657.69v.42c-.04.37-.31.639-.64.67H35.5c-2.873 0-4.92 1.886-4.92 4.531v3.796c0 2.63 1.759 4.503 4.612 4.503h5.987c1.074 0 1.945-.802 1.945-1.793V27.083c0-3-1.566-4.895-5.309-4.895z" fill="#222C53"/><path d="M96.468 25.985h.8c.788 0 1.357-.126 1.71-.377.351-.251.527-.653.527-1.208 0-.5-.166-.871-.496-1.115-.332-.245-.847-.367-1.548-.367h-.993v3.067zm3.957-1.627c0 .765-.264 1.353-.792 1.764-.528.412-1.283.617-2.266.617h-.899v2.969h-.889v-7.549h1.982c1.91 0 2.864.733 2.864 2.2z" fill="#00B4DF"/><path d="M96.664 25.792h.604c.742 0 1.278-.114 1.595-.34.3-.215.447-.56.447-1.052 0-.439-.137-.753-.418-.96-.296-.218-.777-.329-1.43-.329h-.798v2.68zm.604.387h-.996v-3.454h1.19c.75 0 1.294.132 1.664.405.382.282.575.709.575 1.27 0 .617-.205 1.077-.609 1.365-.39.278-.986.414-1.824.414zm-1.493 3.336h.497v-2.97h1.095c.934 0 1.656-.193 2.145-.575.483-.376.718-.903.718-1.61 0-1.352-.873-2.008-2.67-2.008h-1.785v7.163zm.889.387h-1.28v-7.936h2.176c2.031 0 3.061.805 3.061 2.393 0 .823-.292 1.467-.867 1.915-.56.437-1.363.658-2.387.658h-.703v2.97zm7.001-1.054c.697 0 1.245-.19 1.643-.567.398-.377.597-.906.597-1.586v-.66l-1.12.047c-.891.031-1.533.168-1.927.41-.393.242-.59.619-.59 1.13 0 .4.123.704.368.913.245.208.588.313 1.029.313zm2.53.78l-.222-1.04h-.054c-.37.457-.737.768-1.104.93-.367.162-.824.243-1.373.243-.733 0-1.308-.187-1.724-.56-.416-.373-.624-.904-.624-1.593 0-1.475 1.195-2.248 3.583-2.32l1.255-.04v-.452c0-.574-.125-.997-.374-1.27-.25-.274-.65-.41-1.198-.41-.617 0-1.313.186-2.092.56l-.344-.847a5.301 5.301 0 0 1 1.197-.46c.435-.111.87-.167 1.306-.167.882 0 1.536.194 1.96.58.426.387.638 1.007.638 1.86v4.986h-.83z" fill="#00B4DF"/><path d="M105.807 26.136l-1.018.043c-.87.03-1.501.163-1.879.394-.366.225-.544.569-.544 1.049 0 .374.11.649.334.84.226.192.55.289.965.289.667 0 1.198-.181 1.575-.54.376-.356.567-.866.567-1.516v-.559zm-2.142 2.809c-.463 0-.83-.114-1.093-.337-.266-.227-.401-.558-.401-.986 0-.545.213-.953.636-1.212.406-.25 1.07-.394 1.974-.425l1.222-.05v.76c0 .704-.21 1.262-.628 1.656-.415.394-.99.594-1.71.594zm.695-5.926c.574 0 1.002.148 1.27.441.266.291.4.74.4 1.335v.548l-1.35.043c-2.347.07-3.488.796-3.488 2.222 0 .658.2 1.17.592 1.52.395.356.953.536 1.658.536.533 0 .982-.079 1.333-.234.35-.156.71-.46 1.067-.902l.03-.037h.18l.223 1.04h.652v-4.889c0-.822-.204-1.423-.606-1.789-.405-.367-1.042-.554-1.893-.554a5.17 5.17 0 0 0-1.282.164c-.395.1-.764.24-1.098.41l.272.671c.751-.348 1.437-.525 2.04-.525zm-.918 6.838c-.755 0-1.357-.196-1.79-.585-.435-.39-.655-.95-.655-1.664 0-1.53 1.237-2.343 3.677-2.416l1.16-.037v-.36c0-.545-.118-.95-.349-1.205-.23-.25-.608-.378-1.125-.378-.599 0-1.288.185-2.049.55l-.094.046-.417-1.023.078-.04a5.428 5.428 0 0 1 1.219-.47c.441-.112.889-.17 1.33-.17.903 0 1.585.204 2.026.606.445.403.67 1.053.67 1.931v5.082h-1.007l-.208-.97c-.349.41-.702.696-1.052.852-.378.167-.853.251-1.414.251zm4.717-7.534h1.2l1.62 4.166c.356.95.576 1.637.661 2.059h.054c.059-.227.181-.615.368-1.163.187-.549.797-2.237 1.832-5.062h1.201l-3.178 8.318c-.315.822-.682 1.406-1.103 1.75-.421.343-.937.516-1.549.516a4.53 4.53 0 0 1-1.012-.113v-.887c.248.054.524.08.83.08.77 0 1.318-.426 1.647-1.28l.411-1.039-2.982-7.345z" fill="#00B4DF"/><path d="M108.351 32.716c.3.063.607.094.914.094.586 0 1.086-.166 1.486-.494.406-.332.767-.907 1.075-1.71l3.127-8.187h-.99c-1.017 2.776-1.625 4.457-1.808 4.997a18.7 18.7 0 0 0-.366 1.156l-.019.072h-.21l-.016-.078c-.084-.414-.305-1.102-.657-2.044l-1.595-4.103h-.99l2.944 7.248-.426 1.076c-.342.889-.926 1.34-1.737 1.34a4.26 4.26 0 0 1-.732-.058v.69zm.914.288c-.347 0-.696-.039-1.033-.116l-.077-.017v-1.084l.12.026c.238.051.51.077.808.077.731 0 1.24-.398 1.555-1.217l.398-1.005-3.022-7.442h1.413l1.643 4.228c.29.774.491 1.38.604 1.808.067-.224.165-.525.295-.908.185-.546.802-2.249 1.833-5.064l.023-.064h1.411l-.05.13-3.177 8.319c-.32.834-.7 1.436-1.133 1.79-.437.357-.979.539-1.61.539zm16.457-3.376v-4.753c0-.582-.126-1.018-.377-1.31-.252-.29-.644-.436-1.174-.436-.698 0-1.213.198-1.546.593-.333.396-.499 1.004-.499 1.827v4.079h-1.12v-4.753c0-.582-.126-1.018-.378-1.31-.252-.29-.646-.436-1.18-.436-.702 0-1.217.208-1.543.623-.326.416-.489 1.097-.489 2.043v3.833h-1.12v-7.305h.911l.182.999h.054a2.2 2.2 0 0 1 .894-.833c.385-.2.815-.3 1.292-.3 1.156 0 1.913.413 2.268 1.24h.054c.22-.382.54-.684.958-.907a3.005 3.005 0 0 1 1.43-.333c.837 0 1.463.212 1.88.637.415.424.624 1.103.624 2.036v4.766h-1.12z" fill="#00B4DF"/><path d="M125.82 29.53h.924v-4.668c0-.903-.2-1.565-.596-1.969-.395-.403-1.003-.607-1.809-.607-.516 0-.981.108-1.384.322-.4.212-.709.505-.92.869l-.028.048h-.175l-.026-.059c-.341-.794-1.054-1.18-2.177-1.18-.458 0-.878.097-1.246.289-.367.19-.654.458-.856.796l-.028.048h-.192l-.182-1h-.731v7.112h.924v-3.736c0-.964.172-1.671.51-2.102.344-.438.889-.66 1.62-.66.561 0 .984.158 1.254.47.267.308.402.77.402 1.372v4.656h.924v-3.982c0-.842.176-1.477.522-1.888.35-.417.896-.629 1.62-.629.558 0 .979.159 1.249.47.266.309.402.77.402 1.373v4.656zm1.12.194h-1.315v-4.849c0-.555-.12-.975-.355-1.247-.231-.267-.601-.403-1.1-.403-.663 0-1.158.19-1.47.56-.315.375-.476.968-.476 1.764v4.175h-1.316v-4.849c0-.555-.119-.975-.355-1.247-.231-.267-.603-.403-1.106-.403-.666 0-1.16.198-1.465.587-.31.396-.468 1.063-.468 1.983v3.93h-1.316v-7.499h1.09l.165.902a2.3 2.3 0 0 1 .839-.724 2.87 2.87 0 0 1 1.337-.312c1.138 0 1.912.398 2.303 1.18.225-.345.538-.626.93-.834.432-.23.929-.346 1.477-.346.861 0 1.517.225 1.95.667.432.441.652 1.148.652 2.103v4.862zm4.64-6.609c-.594 0-1.068.191-1.42.574-.354.382-.562.911-.625 1.586h3.866c0-.697-.157-1.231-.472-1.603-.315-.37-.765-.557-1.35-.557m.304 6.646c-1.093 0-1.956-.329-2.588-.986-.632-.658-.947-1.571-.947-2.74 0-1.177.293-2.113.88-2.806.587-.693 1.375-1.04 2.365-1.04.927 0 1.66.301 2.2.903.54.602.81 1.397.81 2.383v.7h-5.096c.023.858.242 1.509.659 1.953.416.445 1.001.666 1.757.666a6.03 6.03 0 0 0 2.362-.492v.986c-.396.169-.77.29-1.123.363a6.35 6.35 0 0 1-1.279.11" fill="#00B4DF"/><path d="M129.643 25.178h3.659c-.014-.624-.165-1.11-.448-1.444-.299-.35-.715-.522-1.275-.522-.562 0-1.016.182-1.348.542-.318.345-.516.823-.588 1.424zm3.856.194h-4.071l.01-.106c.064-.694.282-1.246.648-1.642.371-.402.874-.605 1.493-.605.612 0 1.092.199 1.424.591.33.388.496.948.496 1.665v.097zm-1.906-3.086c-.955 0-1.725.338-2.29 1.005-.57.672-.858 1.596-.858 2.744 0 1.138.31 2.037.922 2.673.61.635 1.456.956 2.516.956.49 0 .913-.036 1.258-.108.329-.068.68-.18 1.047-.332v-.778a6.117 6.117 0 0 1-2.265.445c-.78 0-1.396-.235-1.83-.697-.43-.46-.66-1.139-.683-2.017l-.002-.099h5.096v-.603c0-.957-.264-1.737-.785-2.318-.518-.578-1.233-.871-2.126-.871zm.29 7.571c-1.116 0-2.01-.342-2.659-1.016-.647-.673-.975-1.617-.975-2.806 0-1.195.304-2.16.904-2.868.603-.714 1.424-1.075 2.44-1.075.95 0 1.716.315 2.272.936.554.618.835 1.44.835 2.447v.796h-5.09c.035.782.246 1.384.628 1.792.394.421.962.635 1.685.635.78 0 1.561-.163 2.324-.485l.136-.058v1.196l-.059.025c-.399.17-.783.295-1.142.37a6.553 6.553 0 0 1-1.3.111zm9.689-.229v-4.726c0-.596-.137-1.04-.412-1.333-.274-.293-.703-.44-1.288-.44-.774 0-1.34.207-1.7.62-.36.413-.54 1.096-.54 2.046v3.833h-1.12v-7.305h.91l.182.999h.054c.23-.36.552-.638.966-.836a3.163 3.163 0 0 1 1.383-.297c.89 0 1.56.212 2.01.637.45.424.675 1.103.675 2.036v4.766h-1.12z" fill="#00B4DF"/><path d="M141.67 29.53h.924v-4.668c0-.901-.216-1.563-.644-1.966-.429-.405-1.082-.61-1.943-.61a3.08 3.08 0 0 0-1.341.287 2.193 2.193 0 0 0-.924.801l-.03.045h-.19l-.18-1h-.733v7.112h.925v-3.736c0-.97.19-1.68.563-2.11.378-.433.975-.653 1.775-.653.61 0 1.068.159 1.36.47.291.312.438.782.438 1.4v4.629zm1.12.194h-1.315v-4.822c0-.567-.13-.994-.386-1.268-.254-.27-.664-.409-1.217-.409-.74 0-1.287.198-1.627.587-.342.393-.515 1.06-.515 1.983v3.93h-1.316v-7.499h1.09l.166.909c.23-.31.536-.557.911-.736a3.276 3.276 0 0 1 1.426-.307c.912 0 1.612.223 2.078.664.468.442.705 1.15.705 2.106v4.862zm4.592-.876c.198 0 .389-.015.573-.043.185-.03.33-.06.439-.09v.846c-.122.058-.3.106-.536.144a4.115 4.115 0 0 1-.638.056c-1.43 0-2.146-.744-2.146-2.233v-4.346h-1.06v-.533l1.06-.46.473-1.56h.648v1.694h2.145v.86h-2.145v4.298c0 .44.105.778.316 1.014.212.235.502.353.871.353" fill="#00B4DF"/><path d="M144.113 23.086h1.06v4.442c0 1.437.669 2.136 2.047 2.136.184 0 .394-.018.622-.055.191-.03.344-.068.454-.111v-.659a4.673 4.673 0 0 1-.326.061c-.19.03-.387.045-.588.045-.397 0-.713-.13-.944-.387-.227-.252-.341-.615-.341-1.077v-4.395h2.145v-.667h-2.145v-1.693h-.477l-.465 1.533-1.042.453v.374zm3.107 6.771c-1.489 0-2.244-.783-2.244-2.329v-4.25h-1.06v-.692l1.077-.468.48-1.585h.819v1.693h2.146v1.053h-2.146v4.202c0 .414.099.734.292.95.194.215.455.32.798.32.19 0 .378-.014.558-.042.178-.028.322-.057.427-.087l.125-.036v1.036l-.056.026a2.145 2.145 0 0 1-.563.152 4.212 4.212 0 0 1-.653.057zm7.422-2.222c0 .68-.256 1.204-.77 1.573-.512.369-1.232.553-2.158.553-.98 0-1.746-.153-2.294-.46v-1.027c.354.179.736.318 1.143.42.407.103.8.154 1.177.154.585 0 1.035-.092 1.35-.277.315-.184.472-.465.472-.843 0-.284-.124-.527-.374-.73-.25-.202-.737-.44-1.46-.716-.69-.253-1.179-.475-1.469-.663a2.001 2.001 0 0 1-.647-.644 1.66 1.66 0 0 1-.213-.86c0-.595.246-1.065.736-1.41.49-.343 1.162-.516 2.017-.516.796 0 1.574.16 2.335.48l-.398.9c-.743-.302-1.415-.454-2.018-.454-.53 0-.931.083-1.2.248-.27.163-.406.39-.406.68 0 .195.051.362.153.5.1.137.264.268.488.392.225.125.657.305 1.296.54.877.315 1.47.633 1.778.953.308.32.462.722.462 1.207" fill="#00B4DF"/><path d="M149.517 29.244c.528.28 1.266.42 2.197.42.9 0 1.608-.18 2.101-.534.49-.353.73-.842.73-1.495 0-.457-.147-.84-.436-1.14-.297-.308-.882-.62-1.74-.929-.653-.24-1.08-.419-1.31-.547-.235-.13-.411-.27-.52-.42a.918.918 0 0 1-.171-.556c0-.324.152-.58.451-.763.285-.173.706-.261 1.252-.261.588 0 1.25.143 1.966.424l.32-.722a5.883 5.883 0 0 0-2.204-.435c-.83 0-1.49.168-1.962.499-.467.328-.694.763-.694 1.33 0 .315.067.588.2.812.133.226.34.431.616.61.284.186.771.405 1.448.654.743.283 1.23.522 1.49.732.27.22.409.492.409.805 0 .413-.175.724-.52.926-.329.193-.799.29-1.4.29-.382 0-.787-.052-1.2-.156a5.773 5.773 0 0 1-1.023-.359v.815zm2.197.613c-.994 0-1.782-.159-2.343-.472l-.05-.028v-1.24l.143.071c.346.174.724.312 1.123.413.398.1.787.15 1.154.15.564 0 1.001-.088 1.3-.263.285-.167.424-.415.424-.76 0-.256-.111-.47-.339-.655-.24-.195-.723-.43-1.434-.701-.69-.254-1.19-.48-1.486-.673a2.105 2.105 0 0 1-.678-.675 1.76 1.76 0 0 1-.226-.909c0-.625.261-1.126.776-1.488.505-.354 1.203-.535 2.075-.535.805 0 1.604.164 2.373.488l.09.038-.476 1.076-.088-.036c-.728-.296-1.395-.446-1.98-.446-.51 0-.897.078-1.15.233-.24.147-.359.342-.359.598a.73.73 0 0 0 .134.443c.092.126.247.249.457.365.218.12.65.3 1.282.534.899.323 1.493.643 1.815.977.324.337.489.765.489 1.273 0 .71-.272 1.265-.81 1.652-.527.378-1.273.57-2.216.57zm-55.247 8.066v2.822h1.592c.617 0 1.081-.117 1.393-.353.311-.236.467-.605.467-1.107 0-.468-.16-.812-.478-1.032-.318-.22-.803-.33-1.455-.33h-1.52zm0-.743h1.462c.626 0 1.078-.097 1.352-.292.276-.194.413-.521.413-.982 0-.423-.153-.729-.46-.916-.306-.188-.793-.281-1.461-.281h-1.306v2.471zm-.888-3.23h2.157c1.013 0 1.746.15 2.199.45.452.298.679.771.679 1.418 0 .447-.127.815-.38 1.107-.251.29-.62.479-1.104.564v.052c1.16.196 1.74.798 1.74 1.806 0 .674-.23 1.2-.693 1.58-.461.377-1.106.566-1.934.566h-2.664V33.95z" fill="#00B4DF"/><path d="M96.662 36.987h1.267c.582 0 .999-.086 1.239-.256.223-.157.33-.427.33-.825 0-.355-.12-.6-.366-.752-.274-.167-.731-.252-1.36-.252h-1.11v2.085zm1.267.387h-1.658v-2.858h1.502c.711 0 1.224.1 1.565.31.367.224.552.587.552 1.08 0 .525-.166.908-.495 1.14-.311.22-.791.328-1.466.328zm-1.267 3.178h1.398c.57 0 .998-.106 1.273-.314.263-.199.39-.51.39-.953 0-.404-.129-.69-.394-.873-.284-.196-.735-.295-1.343-.295h-1.324v2.435zm1.398.386h-1.79V37.73h1.715c.7 0 1.212.119 1.567.365.373.257.562.658.562 1.19 0 .563-.183.987-.544 1.26-.345.261-.854.393-1.511.393zm-2.285.362h2.467c.779 0 1.387-.176 1.81-.523.419-.343.622-.81.622-1.43 0-.908-.516-1.436-1.576-1.615l-.164-.028v-.376l.162-.029c.436-.077.77-.245.99-.5.224-.257.332-.578.332-.981 0-.583-.194-.995-.592-1.258-.418-.276-1.12-.416-2.09-.416h-1.961V41.3zm2.467.387h-2.859v-7.93h2.353c1.062 0 1.817.158 2.308.481.508.337.766.868.766 1.58 0 .493-.144.907-.427 1.232-.164.19-.373.342-.624.453 1.064.383 1.307 1.188 1.307 1.844 0 .731-.257 1.312-.763 1.728-.496.406-1.189.612-2.06.612zm6.355-.954c.704 0 1.258-.19 1.66-.572.403-.382.604-.917.604-1.604v-.667l-1.132.047c-.9.032-1.55.17-1.947.415-.398.244-.597.626-.597 1.142 0 .404.124.711.372.923.248.21.594.316 1.04.316zm2.557.789l-.225-1.052h-.054c-.374.463-.745.776-1.116.94-.37.164-.833.246-1.387.246-.741 0-1.322-.189-1.743-.566-.42-.377-.63-.913-.63-1.61 0-1.491 1.206-2.273 3.62-2.344l1.27-.041v-.458c0-.58-.127-1.007-.38-1.283-.252-.276-.655-.414-1.21-.414-.623 0-1.327.188-2.114.565l-.348-.855a5.372 5.372 0 0 1 1.211-.465 5.317 5.317 0 0 1 1.32-.168c.89 0 1.55.195 1.98.586.43.39.645 1.017.645 1.88v5.039h-.839z" fill="#00B4DF"/><g transform="translate(101.55 33.593)"><mask id="f" fill="#fff"><use xlink:href="#e"/></mask><path d="M5.214 4.398l-1.03.043c-.88.03-1.518.165-1.9.4-.37.228-.55.575-.55 1.06 0 .373.113.658.337.849.228.195.557.294.977.294.675 0 1.211-.184 1.592-.547.38-.36.574-.876.574-1.533v-.566zM3.048 7.237c-.469 0-.84-.115-1.104-.34-.27-.23-.406-.565-.406-.996 0-.55.217-.962.643-1.224.41-.253 1.082-.398 1.995-.429l1.234-.052v.768c0 .712-.214 1.275-.634 1.673-.42.398-1.001.6-1.728.6zM3.75 1.25c.58 0 1.012.15 1.283.446.268.294.403.747.403 1.348v.552l-1.363.044C1.701 3.71.547 4.445.547 5.887c0 .665.202 1.182.599 1.539.4.359.964.54 1.676.54.538 0 .992-.079 1.348-.237.355-.157.717-.463 1.079-.911l.03-.037h.18l.225 1.05h.662V2.89c0-.83-.206-1.438-.613-1.808C5.324.71 4.68.521 3.818.521c-.43 0-.866.055-1.295.165a5.314 5.314 0 0 0-1.112.416l.277.679c.76-.353 1.452-.531 2.062-.531zm-.928 6.91c-.762 0-1.37-.2-1.808-.591-.44-.395-.663-.961-.663-1.682 0-1.546 1.25-2.367 3.716-2.44l1.174-.038v-.365c0-.552-.12-.962-.353-1.218-.232-.254-.615-.382-1.138-.382-.605 0-1.302.186-2.071.555l-.095.046-.419-1.032.076-.04c.373-.201.788-.36 1.233-.474A5.432 5.432 0 0 1 3.818.328c.912 0 1.6.205 2.047.611.45.408.676 1.064.676 1.95v5.136H5.525l-.21-.982c-.353.416-.711.706-1.065.863-.382.168-.862.254-1.428.254z" fill="#00B4DF" mask="url(#f)"/></g><path d="M115.44 41.521v-4.776c0-.602-.139-1.05-.416-1.347-.277-.297-.712-.445-1.303-.445-.782 0-1.355.209-1.718.626-.364.419-.546 1.108-.546 2.069v3.873h-1.132v-7.383h.921l.184 1.01h.055a2.3 2.3 0 0 1 .975-.845c.418-.2.884-.3 1.398-.3.9 0 1.577.215 2.032.644.454.428.682 1.114.682 2.058v4.816h-1.132z" fill="#00B4DF"/><path d="M115.538 41.425h.936v-4.72c0-.911-.219-1.58-.651-1.989-.435-.409-1.095-.617-1.966-.617a3.12 3.12 0 0 0-1.355.29c-.4.191-.714.465-.935.81l-.028.046h-.191l-.184-1.01h-.741v7.19h.936v-3.777c0-.98.192-1.697.57-2.132.38-.438.984-.66 1.792-.66.617 0 1.08.16 1.375.476.293.314.442.79.442 1.413v4.68zm1.132.193h-1.328v-4.873c0-.573-.131-1.005-.39-1.282-.256-.274-.67-.413-1.231-.413-.748 0-1.301.2-1.644.592-.346.398-.522 1.073-.522 2.006v3.97h-1.328V34.04h1.1l.168.92a2.44 2.44 0 0 1 .922-.745 3.32 3.32 0 0 1 1.44-.31c.922 0 1.629.226 2.1.67.473.447.713 1.163.713 2.128v4.914zm3.346-3.876c.195-.274.493-.633.893-1.078l2.415-2.526h1.343l-3.028 3.146 3.24 4.237h-1.371l-2.64-3.49-.852.728v2.762h-1.118V31.04h1.118v5.558c0 .247-.018.629-.054 1.145h.054z" fill="#00B4DF"/><path d="M123.557 41.425h1.124l-3.17-4.149 2.927-3.041h-1.073l-2.385 2.496c-.392.436-.69.796-.884 1.067l-.03.04h-.21l.008-.103c.036-.51.054-.892.054-1.138v-5.462h-.923v10.29h.923v-2.71l.966-.824 2.673 3.534zm1.518.193h-1.616l-2.607-3.445-.739.63v2.815H118.8V30.943h1.314v5.654c0 .208-.012.51-.037.9.19-.246.446-.547.76-.897l2.446-2.56h1.613l-3.128 3.251 3.308 4.327z" fill="#00B4DF"/></g></svg>