<svg width="195" height="60" viewBox="0 0 195 60" xmlns="http://www.w3.org/2000/svg"><title>ic-mastercard</title><g fill="none" fill-rule="evenodd"><path d="M4 7h187.996v46H4z"/><g fill-rule="nonzero"><path d="M86.85 35.064v-6.273c0-2.366-1.523-3.96-3.973-3.98a3.92 3.92 0 0 0-3.547 1.78 3.715 3.715 0 0 0-3.337-1.78 3.35 3.35 0 0 0-2.952 1.488v-1.254h-2.198v10.02h2.219v-5.55c0-1.74.97-2.66 2.472-2.66 1.501 0 2.197.941 2.197 2.639v5.57h2.206v-5.55c0-1.739 1.012-2.659 2.472-2.659 1.459 0 2.218.941 2.218 2.639v5.57h2.223zm32.827-10.011h-3.59v-3.036h-2.218v3.036h-2.05v1.99h2.05v4.563c0 2.325.906 3.71 3.505 3.71a5.196 5.196 0 0 0 2.745-.775l-.632-1.865a4.083 4.083 0 0 1-1.945.565c-1.096 0-1.459-.67-1.459-1.673v-4.525h3.59l.004-1.99zm18.739-.251a2.983 2.983 0 0 0-2.661 1.468v-1.217h-2.177v10.011h2.198v-5.612c0-1.673.717-2.576 2.155-2.576.47-.007.938.079 1.375.251l.675-2.053a4.73 4.73 0 0 0-1.565-.272zm-28.33 1.045a7.6 7.6 0 0 0-4.121-1.045c-2.556 0-4.218 1.217-4.218 3.203 0 1.635 1.223 2.639 3.484 2.953l1.033.146c1.202.167 1.776.48 1.776 1.045 0 .774-.802 1.217-2.303 1.217a5.414 5.414 0 0 1-3.374-1.045l-1 1.694a7.329 7.329 0 0 0 4.374 1.3c2.914 0 4.606-1.363 4.606-3.266 0-1.76-1.333-2.68-3.526-2.994l-1.034-.146c-.949-.126-1.712-.314-1.712-.983 0-.732.717-1.171 1.923-1.171a6.55 6.55 0 0 1 3.147.857l.944-1.765zm58.845-1.045a2.983 2.983 0 0 0-2.661 1.468v-1.217h-2.176v10.011h2.197v-5.612c0-1.673.717-2.576 2.155-2.576.47-.007.938.079 1.375.251l.675-2.053a4.73 4.73 0 0 0-1.565-.272zm-28.297 5.257c0 3.036 2.135 5.256 5.387 5.256a5.319 5.319 0 0 0 3.631-1.196l-1.054-1.76a4.462 4.462 0 0 1-2.64.899c-1.755 0-3.042-1.28-3.042-3.204 0-1.923 1.29-3.182 3.041-3.203.955.01 1.88.326 2.64.9l1.055-1.761a5.319 5.319 0 0 0-3.631-1.196c-3.252 0-5.387 2.22-5.387 5.256v.009zm20.575 0V25.04h-2.198v1.217a3.843 3.843 0 0 0-3.188-1.468c-2.83 0-5.062 2.2-5.062 5.257 0 3.057 2.219 5.257 5.062 5.257a3.843 3.843 0 0 0 3.188-1.468v1.212h2.198V30.06zm-8.174 0c0-1.761 1.16-3.204 3.062-3.204 1.818 0 3.04 1.384 3.04 3.204 0 1.819-1.222 3.203-3.04 3.203-1.902 0-3.062-1.447-3.062-3.203zm-26.513-5.257c-2.953 0-5.028 2.137-5.028 5.257 0 3.182 2.156 5.256 5.176 5.256a6.17 6.17 0 0 0 4.141-1.405l-1.075-1.614a4.838 4.838 0 0 1-2.953 1.045c-1.417 0-2.703-.648-3.02-2.45h7.5c.02-.272.042-.544.042-.837 0-3.12-1.966-5.256-4.796-5.256l.013.004zm-.042 1.949c1.417 0 2.324.878 2.556 2.43H123.8c.232-1.448 1.118-2.43 2.683-2.43h-.004zm55.105 3.308V21.03h-2.198v5.236a3.843 3.843 0 0 0-3.189-1.468c-2.83 0-5.06 2.2-5.06 5.256 0 3.057 2.218 5.257 5.06 5.257a3.843 3.843 0 0 0 3.19-1.468v1.213h2.197v-4.997zm2.568 4.081a.65.65 0 0 1 .599.389.618.618 0 0 1-.14.694.637.637 0 0 1-.46.188.654.654 0 0 1-.606-.389.622.622 0 0 1 0-.493.638.638 0 0 1 .346-.339.667.667 0 0 1 .27-.05h-.009zm0 1.13a.48.48 0 0 0 .35-.143.495.495 0 0 0-.35-.845.499.499 0 0 0-.494.4.495.495 0 0 0 .136.445.502.502 0 0 0 .367.142h-.009zm.038-.795a.272.272 0 0 1 .177.05.167.167 0 0 1 .063.138.158.158 0 0 1-.05.121.237.237 0 0 1-.14.059l.195.221h-.152l-.181-.221h-.06v.221h-.126v-.585l.274-.004zm-.148.108v.16h.148a.145.145 0 0 0 .08 0 .067.067 0 0 0 .03-.06.067.067 0 0 0-.03-.058.145.145 0 0 0-.08 0l-.148-.042zM173.42 30.06c0-1.761 1.16-3.204 3.062-3.204 1.818 0 3.041 1.384 3.041 3.204 0 1.819-1.223 3.203-3.04 3.203-1.903 0-3.063-1.447-3.063-3.203zm-74.19 0v-5.02h-2.2v1.217a3.843 3.843 0 0 0-3.176-1.455c-2.83 0-5.06 2.2-5.06 5.257 0 3.056 2.218 5.256 5.06 5.256a3.843 3.843 0 0 0 3.19-1.468v1.213h2.197l-.013-5.001zm-8.174 0c0-1.761 1.16-3.204 3.062-3.204 1.818 0 3.041 1.384 3.041 3.204 0 1.819-1.223 3.203-3.041 3.203-1.902 0-3.062-1.443-3.062-3.203z" fill="#000"/><path fill="#FF5A00" d="M29.518 18.157h13.286V41.83H29.518z"/><path d="M30.362 30a14.983 14.983 0 0 1 5.799-11.835c-6.225-4.85-15.166-4.144-20.537 1.624a14.96 14.96 0 0 0 0 20.427c5.371 5.767 14.312 6.474 20.537 1.623A14.983 14.983 0 0 1 30.361 30z" fill="#FF0010"/><path d="M60.73 30c0 5.764-3.32 11.022-8.55 13.54a15.29 15.29 0 0 1-16.019-1.705 15.008 15.008 0 0 0 5.802-11.837c0-4.62-2.14-8.983-5.802-11.837a15.29 15.29 0 0 1 16.022-1.705c5.229 2.52 8.548 7.78 8.546 13.544z" fill="#FFA108"/><path d="M59.27 39.321v-.485h.198v-.096h-.493v.1h.198v.485l.097-.004zm.974 0v-.585h-.13l-.178.418-.177-.418h-.156v.585h.089v-.439l.164.38h.114l.165-.38v.443l.11-.004z" fill="#F79E1B"/></g></g></svg>